An unassuming pet photographer is thrown into serious action, adventure and romance when he's forced to marry a Croatian bride and spend his honeymoon at a remote tropical resort where she is kidnapped.
   http://www.imdb.com/title/tt1381418/


Complete name : You May Not Kiss The Bride 2011 BRRip x264 AAC-UNiQUE.mp4
 Format : MPEG-4
 Format profile : Base Media
 Codec ID : isom
 File size : 1.01 GiB
 Duration : 1h 40mn
 Overall bit rate mode : Variable
 Overall bit rate : 1 444 Kbps
 Encoded date : UTC 2012-06-21 08:06:56
 
Video
 ID : 1
 Format : AVC
 Format/Info : Advanced Video Codec
 Format profile : High@L4.1
 Format settings, CABAC : Yes
 Format settings, ReFrames : 3 frames
 Codec ID : avc1
 Codec ID/Info : Advanced Video Coding
 Duration : 1h 40mn
 Bit rate mode : Variable
 Bit rate : 1 103 Kbps
 Maximum bit rate : 40.0 Mbps
 Width : 720 pixels
 Height : 400 pixels
 Display aspect ratio : 16:9
 Frame rate mode : Constant
 Frame rate : 24.000 fps
 Color space : YUV
 Chroma subsampling : 4:2:0
 Bit depth : 8 bits
 Scan type : Progressive
 Bits/(Pixel*Frame) : 0.160
 Stream size : 790 MiB (76%)
 Writing library : x264 core 125 r2200 999b753
 
Audio
 ID : 2
 Format : AAC
 Format/Info : Advanced Audio Codec
 Format profile : LC
 Codec ID : 40
 Duration : 1h 40mn
 Bit rate mode : Variable
 Bit rate : 337 Kbps
 Maximum bit rate : 385 Kbps
 Channel(s) : 6 channels
 Channel positions : Front: L C R, Side: L R, LFE
 Sampling rate : 48.0 KHz
 Compression mode : Lossy
 Stream size : 242 MiB (23%)
 Language : English
 
Source : LEVERAGE - Thanks!